# xmcd CD database file
#
# Track frame offsets:
#	150
#	19000
#	49995
#
# Disc length: 744 seconds
#
# Revision: 0
# Processed by: cddbd v1.5.1PL0 Copyright (c) Steve Scherf et al.
# Submitted via: CDex 1.51
#
DISCID=1e02e603
DTITLE=矢井田　瞳 - マワルソラ
DYEAR=2005
DGENRE=J-POP
TTITLE0=マワルソラ
TTITLE1=ビルを見下ろす屋上で
TTITLE2=？？？？
EXTD=YEAR: 2005
EXTT0=
EXTT1=
EXTT2=
PLAYORDER=
